<?xml version="1.0" ?><!DOCTYPE svg  PUBLIC '-//W3C//DTD SVG 1.1//EN'  'http://www.w3.org/Graphics/SVG/1.1/DTD/svg11.dtd'><svg height="100%" style="fill-rule:evenodd;clip-rule:evenodd;stroke-linejoin:round;stroke-miterlimit:1.41421;" version="1.1" viewBox="0 0 101 126" width="100%" xml:space="preserve" xmlns="http://www.w3.org/2000/svg" xmlns:serif="http://www.serif.com/" xmlns:xlink="http://www.w3.org/1999/xlink"><path d="M54.361,33.047l2.54,0.427l0.858,0.213l1.651,0.439l0.979,0.33l1.485,0.55l0.991,0.428l1.42,0.686l0.955,0.51l1.401,0.85l0.874,0.567l1.461,1.09l0.707,0.548l2.048,1.861c5.1,5.1 8.1,11.6 8.6,18.7c-8.4,0.2 -16.5,3.6 -22.5,9.6c-0.707,0.706 -1.378,1.441 -2.004,2.205l-0.123,0.135l-0.472,0.632l-0.957,1.234l-0.231,0.356l-0.002,0.003l-0.214,0.286l-0.408,0.672l-0.632,0.973l-0.306,0.569l-0.273,0.449l-0.294,0.608l-0.414,0.772l-0.349,0.806l-0.296,0.612l-0.184,0.496l-0.252,0.581l-0.366,1.084l-0.28,0.754l-0.094,0.352l-0.131,0.39l-0.366,1.479l-0.211,0.794l-0.031,0.185l-0.049,0.196l-0.437,2.715l-0.224,3.162c-6.8,-0.7 -13.4,-3.6 -18.6,-8.8c-5.4,-5.3 -8.5,-12.4 -8.7,-20c8,-0.5 15.5,-3.8 21.2,-9.5c5.7,-5.7 9,-13.2 9.5,-21.2l2.73,0.201Z" style="fill:#6eff0e;"/><path d="M79.339,70.3l-1.135,3.349l-0.182,0.465l-1.488,3.018l-0.312,0.538l-1.884,2.802l-0.324,0.402l-0.027,0.03l-2.356,2.642l-2.768,2.421l-0.412,0.327l-2.842,1.886l-0.541,0.31l-3.007,1.472l-0.459,0.18l-3.282,1.116l-2.089,0.488c0.3,-6.1 2.8,-11.9 7.2,-16.4c4.4,-4.4 10.3,-6.9 16.4,-7.2l-0.492,2.154Z" style="fill:#9bff58;"/><path d="M43.218,35.792l-0.884,3.196l-0.148,0.442l-1.283,2.887l-0.275,0.514l-1.699,2.68l-0.298,0.385l-2.2,2.55l-2.55,2.2l-0.384,0.298l-2.68,1.698l-0.515,0.276l-2.887,1.282l-0.442,0.148l-3.195,0.884l-2.047,0.314c1.3,-5.3 4,-10.1 7.9,-14c4,-4 8.8,-6.6 13.9,-7.8l-0.313,2.046Z" style="fill:#9bff58;"/><path d="M26.943,44.297c-2.179,21.079 5.122,37.926 26.313,51.692c-13.632,2.322 -51.396,-24.645 -26.313,-51.692Z" style="fill:#020000;fill-opacity:0.200067;"/><path d="M77.331,89.246c7.1,-7.1 11.1,-16.6 11.1,-26.7c0,-10.1 -3.9,-19.6 -11.1,-26.7c-14.7,-14.7 -38.7,-14.7 -53.4,0c-7.1,7.1 -11.1,16.6 -11.1,26.7c0,10.1 3.9,19.6 11.1,26.7c7.4,7.4 17,11 26.7,11c9.7,0 19.3,-3.6 26.7,-11Zm-5.7,-5.7c-4.4,4.4 -9.8,7.1 -15.4,8.2c0.3,-6.1 2.8,-11.9 7.2,-16.4c4.4,-4.4 10.3,-6.9 16.4,-7.2c-1.1,5.8 -3.9,11.2 -8.2,15.4Zm-42,-42c4,-4 8.8,-6.6 13.9,-7.8c-0.6,5.5 -3.1,10.7 -7.1,14.7c-4,4 -9.2,6.5 -14.7,7.1c1.3,-5.3 4,-10.1 7.9,-14Zm-8.7,22c8,-0.5 15.5,-3.8 21.2,-9.5c5.7,-5.7 9,-13.2 9.5,-21.2c7.3,0.2 14.5,3.1 20.1,8.7c5.1,5.1 8.1,11.6 8.6,18.7c-8.4,0.2 -16.5,3.6 -22.5,9.6c-6,6 -9.4,14 -9.6,22.5c-6.8,-0.7 -13.4,-3.6 -18.6,-8.8c-5.4,-5.3 -8.5,-12.4 -8.7,-20Z" style="fill-rule:nonzero;"/></svg>